REM DIRINDEX 1\5,1\2\6,1\2\7,1\3\8,1\3\9,1\4\10,1\4\11,1\4\12
REM DIRNAME folder01,folder02,folder03,folder04,folder05,folder06,folder07,folder08,folder09,folder10,folder11,folder12
TITLE ""
FILE "EJE_DB3000_5th_1A_12.mp3" MP3
  TRACK 01 AUDIO
    TITLE "0:"
    INDEX 01 00:00:00
  TRACK 02 AUDIO
    TITLE "10:cjc026_07194"
    INDEX 01 00:00:05
  TRACK 03 AUDIO
    TITLE "0:"
    INDEX 01 00:00:66
  TRACK 04 AUDIO
    TITLE "11:cjc026_07195"
    INDEX 01 00:01:17
  TRACK 05 AUDIO
    TITLE "0:"
    INDEX 01 00:02:10
  TRACK 06 AUDIO
    TITLE "12:cjc026_07196"
    INDEX 01 00:02:34
  TRACK 07 AUDIO
    TITLE "0:"
    INDEX 01 00:03:21
  TRACK 08 AUDIO
    TITLE "10:cjc026_07197"
    INDEX 01 00:03:47
  TRACK 09 AUDIO
    TITLE "0:"
    INDEX 01 00:04:40
  TRACK 10 AUDIO
    TITLE "11:cjc026_07198"
    INDEX 01 00:04:66
  TRACK 11 AUDIO
    TITLE "0:"
    INDEX 01 00:05:71
  TRACK 12 AUDIO
    TITLE "12:cjc026_07199"
    INDEX 01 00:06:22
  TRACK 13 AUDIO
    TITLE "0:"
    INDEX 01 00:07:13
  TRACK 14 AUDIO
    TITLE "10:cjc026_07200"
    INDEX 01 00:07:39
  TRACK 15 AUDIO
    TITLE "0:"
    INDEX 01 00:08:26
  TRACK 16 AUDIO
    TITLE "11:cjc026_07201"
    INDEX 01 00:08:52
  TRACK 17 AUDIO
    TITLE "0:"
    INDEX 01 00:09:47
  TRACK 18 AUDIO
    TITLE "12:cjc026_07202"
    INDEX 01 00:09:73
  TRACK 19 AUDIO
    TITLE "0:"
    INDEX 01 00:10:59
  TRACK 20 AUDIO
    TITLE "10:cjc026_07203"
    INDEX 01 00:11:09
  TRACK 21 AUDIO
    TITLE "0:"
    INDEX 01 00:11:70
  TRACK 22 AUDIO
    TITLE "11:cjc026_07204"
    INDEX 01 00:12:22
  TRACK 23 AUDIO
    TITLE "0:"
    INDEX 01 00:13:26
  TRACK 24 AUDIO
    TITLE "12:cjc026_07205"
    INDEX 01 00:13:51
  TRACK 25 AUDIO
    TITLE "0:"
    INDEX 01 00:14:37
  TRACK 26 AUDIO
    TITLE "10:cjc026_07206"
    INDEX 01 00:14:62
  TRACK 27 AUDIO
    TITLE "0:"
    INDEX 01 00:15:54
  TRACK 28 AUDIO
    TITLE "11:cjc026_07207"
    INDEX 01 00:16:04
  TRACK 29 AUDIO
    TITLE "0:"
    INDEX 01 00:17:06
  TRACK 30 AUDIO
    TITLE "12:cjc026_07208"
    INDEX 01 00:17:31
  TRACK 31 AUDIO
    TITLE "0:"
    INDEX 01 00:18:21
  TRACK 32 AUDIO
    TITLE "10:cjc026_07209"
    INDEX 01 00:18:46
  TRACK 33 AUDIO
    TITLE "0:"
    INDEX 01 00:19:36
  TRACK 34 AUDIO
    TITLE "11:cjc026_07210"
    INDEX 01 00:19:62
  TRACK 35 AUDIO
    TITLE "0:"
    INDEX 01 00:20:65
  TRACK 36 AUDIO
    TITLE "12:cjc026_07211"
    INDEX 01 00:21:15
  TRACK 37 AUDIO
    TITLE "0:"
    INDEX 01 00:22:05
  TRACK 38 AUDIO
    TITLE "10:cjc026_07212"
    INDEX 01 00:22:32
  TRACK 39 AUDIO
    TITLE "0:"
    INDEX 01 00:23:24
  TRACK 40 AUDIO
    TITLE "11:cjc026_07213"
    INDEX 01 00:23:50
  TRACK 41 AUDIO
    TITLE "0:"
    INDEX 01 00:24:35
  TRACK 42 AUDIO
    TITLE "12:cjc026_07214"
    INDEX 01 00:24:63
  TRACK 43 AUDIO
    TITLE "0:"
    INDEX 01 00:25:54
  TRACK 44 AUDIO
    TITLE "10:cjc026_07215"
    INDEX 01 00:26:05
  TRACK 45 AUDIO
    TITLE "0:"
    INDEX 01 00:26:66
  TRACK 46 AUDIO
    TITLE "11:cjc026_07216"
    INDEX 01 00:27:16
  TRACK 47 AUDIO
    TITLE "0:"
    INDEX 01 00:28:17
  TRACK 48 AUDIO
    TITLE "12:cjc026_07217"
    INDEX 01 00:28:43
  TRACK 49 AUDIO
    TITLE "0:"
    INDEX 01 00:29:29
  TRACK 50 AUDIO
    TITLE "10:cjc026_07218"
    INDEX 01 00:29:54
  TRACK 51 AUDIO
    TITLE "0:"
    INDEX 01 00:30:44
  TRACK 52 AUDIO
    TITLE "11:cjc026_07219"
    INDEX 01 00:30:69
  TRACK 53 AUDIO
    TITLE "0:"
    INDEX 01 00:31:71
  TRACK 54 AUDIO
    TITLE "12:cjc026_07220"
    INDEX 01 00:32:19
  TRACK 55 AUDIO
    TITLE "0:"
    INDEX 01 00:33:09
  TRACK 56 AUDIO
    TITLE "10:cjc026_07221"
    INDEX 01 00:33:36
  TRACK 57 AUDIO
    TITLE "0:"
    INDEX 01 00:34:32
  TRACK 58 AUDIO
    TITLE "11:cjc026_07222"
    INDEX 01 00:34:57
  TRACK 59 AUDIO
    TITLE "0:"
    INDEX 01 00:35:57
  TRACK 60 AUDIO
    TITLE "12:cjc026_07223"
    INDEX 01 00:36:09
  TRACK 61 AUDIO
    TITLE "0:"
    INDEX 01 00:37:05
